<svg viewBox="0 0 298 25" fill="none" xmlns="http://www.w3.org/2000/svg" role="img" aria-labelledby="uhglogo"><title id="uhglogo">United Health Group Logo</title>
<path d="M198.398 23.0689H196.613C196.097 23.0689 195.691 22.6622 195.691 22.1504V14.6922H188.444V22.1504C188.444 22.6622 188.041 23.0689 187.525 23.0689H185.74C185.224 23.0689 184.818 22.6622 184.818 22.1504V5.2812C184.818 4.79368 185.224 4.36542 185.713 4.36542H187.552C188.041 4.36542 188.444 4.79368 188.444 5.2812V12.0607H195.691V5.2812C195.691 4.79368 196.097 4.36542 196.583 4.36542H198.425C198.911 4.36542 199.32 4.79368 199.32 5.2812V22.1504C199.32 22.6622 198.911 23.0689 198.398 23.0689Z" fill="black"/>
<path d="M7.81715 23.3922C2.05771 23.3922 0 20.16 0 16.3164V2.9595C0 2.41542 0.465081 1.91174 1.0221 1.91174H2.64988C3.2069 1.91174 3.67198 2.41542 3.67198 2.9595V16.6962C3.67198 20.1735 5.6026 21.1081 7.89556 21.1081C10.9321 21.1081 12.1191 19.5648 12.1191 16.6962V2.9595C12.1191 2.41542 12.5842 1.91174 13.1412 1.91174H14.5743C15.1341 1.91174 15.5964 2.41542 15.5964 2.9595V16.3164C15.5964 20.7607 12.8817 23.3922 7.81715 23.3922Z" fill="black"/>
<path d="M87.7893 6.53103H84.5797V20.898H87.7893C92.0264 20.898 93.0566 17.6955 93.0566 13.8223C93.0566 9.94905 92.0615 6.53103 87.7893 6.53103ZM88.6545 23.069H81.8784C81.3917 23.069 80.9834 22.6488 80.9834 22.1666V5.29473C80.9834 4.8099 81.3917 4.36548 81.8784 4.36548H88.6545C93.1107 4.36548 96.6501 6.74651 96.6501 13.8223C96.6501 20.898 92.8403 23.0663 88.6545 23.0663" fill="black"/>
<path d="M115.965 23.0717H114.359C113.78 23.0717 113.323 22.6219 113.323 22.0455V13.4991H104.711V22.0455C104.711 22.6192 104.254 23.0717 103.672 23.0717H102.066C101.49 23.0717 101.036 22.6219 101.036 22.0455V3.08348C101.036 2.53671 101.488 2.05188 102.039 2.05188H103.708C104.254 2.05188 104.711 2.53671 104.711 3.08348V10.8057H113.323V3.08348C113.323 2.53671 113.78 2.05188 114.329 2.05188H115.994C116.541 2.05188 116.998 2.53671 116.998 3.08348V22.0455C116.998 22.6192 116.541 23.0717 115.965 23.0717Z" fill="black"/>
<path d="M166.461 23.0717H157.398C156.884 23.0717 156.476 22.6677 156.476 22.1532V5.27863C156.476 4.79381 156.884 4.36285 157.371 4.36285H159.266C159.753 4.36285 160.158 4.79381 160.158 5.27863V20.4294H166.461C166.948 20.4294 167.354 20.8631 167.354 21.3479V22.1775C167.354 22.665 166.948 23.069 166.461 23.069" fill="black"/>
<path d="M43.8852 23.0716H42.0492C41.5355 23.0716 41.1299 22.6514 41.1299 22.1396V5.29736C41.1299 4.81253 41.5355 4.36542 42.0249 4.36542H43.9096C44.399 4.36542 44.8019 4.81253 44.8019 5.29736V22.1396C44.8019 22.6514 44.399 23.0716 43.8825 23.0716" fill="black"/>
<path d="M61.2579 7.00508H56.9883V22.1397C56.9883 22.6515 56.5828 23.0716 56.069 23.0716H54.233C53.7193 23.0716 53.3137 22.6515 53.3137 22.1397V7.00508H49.0144C48.5277 7.00508 48.1221 6.60375 48.1221 6.11893V5.28665C48.1221 4.80182 48.5277 4.36548 49.0144 4.36548H61.2552C61.7419 4.36548 62.1448 4.80451 62.1448 5.28665V6.11893C62.1448 6.60375 61.7419 7.00508 61.2552 7.00508" fill="black"/>
<path d="M180.58 7.00508H176.019V22.1397C176.019 22.6515 175.616 23.0716 175.102 23.0716H173.264C172.755 23.0716 172.347 22.6515 172.347 22.1397V7.00508H167.756C167.266 7.00508 166.863 6.60375 166.863 6.11893V5.28665C166.863 4.80182 167.266 4.36548 167.756 4.36548H180.58C181.067 4.36548 181.47 4.80451 181.47 5.28665V6.11893C181.47 6.60375 181.067 7.00508 180.58 7.00508Z" fill="black"/>
<path d="M76.8294 23.0716H66.238C65.7513 23.0716 65.3457 22.7592 65.3457 22.2744V5.28665C65.3457 4.80182 65.7513 4.36548 66.238 4.36548H76.4455C76.9349 4.36548 77.3378 4.80451 77.3378 5.28665V6.03004C77.3378 6.51487 76.9349 6.9162 76.4455 6.9162H69.0204V12.1011H75.6938C76.1805 12.1011 76.5861 12.5321 76.5861 13.0169V13.7603C76.5861 14.2451 76.1805 14.6492 75.6938 14.6492H69.0204V20.5102L76.8294 20.5209C77.3161 20.5209 77.719 20.9492 77.719 21.434V22.2771C77.719 22.7619 77.3161 23.0743 76.8294 23.0743" fill="black"/>
<path d="M133.389 23.0716H122.798C122.311 23.0716 121.905 22.7591 121.905 22.2743V5.28659C121.905 4.80176 122.311 4.36542 122.798 4.36542H133.005C133.492 4.36542 133.897 4.80445 133.897 5.28659V6.02998C133.897 6.51481 133.492 6.91614 133.005 6.91614H125.58V12.1011H132.251C132.74 12.1011 133.143 12.532 133.143 13.0169V13.7603C133.143 14.2451 132.74 14.6491 132.251 14.6491H125.58V20.5101L133.389 20.5209C133.876 20.5209 134.279 20.9491 134.279 21.434V22.277C134.279 22.7618 133.876 23.0743 133.389 23.0743" fill="black"/>
<path d="M34.5889 23.0717H31.8174C30.9575 23.0717 30.5519 22.6758 30.3356 22.1936C28.9593 19.282 23.6298 7.36877 23.6298 7.36877V22.1667C23.6298 22.6515 23.2242 23.0717 22.7375 23.0717H21.4909C21.0015 23.0717 20.5986 22.6515 20.5986 22.1667V5.26247C20.5986 4.77765 21.0015 4.36285 21.4909 4.36285H24.203C25.0034 4.36285 25.4955 4.64028 25.7686 5.23823C27.2017 8.36266 32.4501 19.9769 32.4501 19.9769V5.26247C32.4501 4.77765 32.8557 4.36285 33.3424 4.36285H34.5916C35.0783 4.36285 35.4839 4.77765 35.4839 5.26247V22.164C35.4839 22.6488 35.0783 23.069 34.5916 23.069" fill="black"/>
<path d="M141.995 16.4026L144.794 7.13437L147.428 16.4026H141.995ZM152.968 21.8838L147.574 5.22739C147.384 4.65907 146.927 4.36548 146.254 4.36548H143.869C143.177 4.36548 142.793 4.66176 142.601 5.22739L137.223 21.9889C137.166 22.1505 137.109 22.2636 137.109 22.4225C137.109 22.7969 137.437 23.069 137.758 23.069H138.975C139.621 23.069 140.092 22.77 140.281 22.2044L141.344 18.7055H148.185L149.293 22.2044C149.45 22.6919 149.81 23.069 150.635 23.069H152.4C152.806 23.069 153.076 22.7969 153.076 22.3929C153.076 22.2044 153.019 22.0724 152.971 21.8811" fill="black"/>
<path d="M235.183 12.6482C237.522 12.6482 238.458 11.5923 238.458 9.58032C238.458 7.44978 237.376 6.45589 235.237 6.45589H232.122V22.0861C232.122 22.5709 231.722 22.9777 231.23 22.9777H229.308C228.824 22.9777 228.418 22.5709 228.418 22.0861V5.18727C228.418 4.70244 228.824 4.27148 229.308 4.27148H235.611C239.48 4.27148 241.889 6.02224 241.889 9.58032C241.889 12.3842 240.107 13.731 238.047 14.2697L242.105 21.8437C242.189 22.0053 242.268 22.1696 242.268 22.3582C242.268 22.6787 242.054 22.9777 241.754 22.9777H239.399C239.126 22.9777 238.828 22.7595 238.696 22.4632L234.359 14.0246C234.248 13.8145 234.053 13.4778 234.053 13.1546C234.053 12.8717 234.194 12.6482 234.691 12.6482H235.178H235.183Z" fill="black"/>
<path d="M253.151 5.9792C249.26 5.9792 248.592 9.46455 248.592 13.626C248.592 17.7874 249.306 21.2727 253.094 21.2727C256.883 21.2727 257.707 17.9732 257.707 13.626C257.707 9.2787 256.983 5.9792 253.151 5.9792ZM253.151 23.371C249.528 23.371 244.912 22.1293 244.912 13.626C244.912 5.12267 249.495 3.88098 253.151 3.88098C256.807 3.88098 261.387 5.17385 261.387 13.626C261.387 22.0781 256.904 23.371 253.151 23.371Z" fill="black"/>
<path d="M272.018 23.3709C266.986 23.3709 264.929 20.5401 264.929 17.1167V5.18457C264.929 4.69975 265.334 4.27148 265.821 4.27148H267.714C268.203 4.27148 268.609 4.69975 268.609 5.18457V17.3321C268.609 20.4296 270.104 21.27 272.192 21.27C274.941 21.27 275.777 19.6566 275.777 17.3321V5.18457C275.777 4.69975 276.183 4.27148 276.669 4.27148H278.211C278.697 4.27148 279.106 4.69975 279.106 5.18457V17.1167C279.106 21.0788 276.613 23.3709 272.016 23.3709" fill="black"/>
<path d="M288.948 13.6231H289.878C291.779 13.6231 293.266 12.6615 293.266 10.1189C293.266 7.33924 291.825 6.42884 289.789 6.42884H286.879V22.0833C286.879 22.5681 286.525 22.9748 286.041 22.9748H284.173C283.686 22.9748 283.283 22.5681 283.283 22.0833V5.18446C283.283 4.69963 283.686 4.26868 284.173 4.26868H290.935C294.575 4.26868 296.7 6.48002 296.7 10.1162C296.7 13.4049 294.762 15.6163 290.93 15.6163C290.2 15.6163 289.481 15.5462 289.037 15.4735C288.261 15.3415 287.912 14.9241 287.912 14.485C287.912 14.046 288.258 13.6204 288.951 13.6204" fill="black"/>
<path d="M223.424 22.369C222.434 22.8027 220.89 23.441 217.646 23.441C212.354 23.441 207.611 21.2297 207.611 12.4705C207.611 5.59677 210.532 1.5 217.646 1.5C220.926 1.5 222.74 2.36999 223.167 2.55046C223.819 2.82519 223.862 2.95717 223.862 3.26153C223.862 3.40698 223.781 3.8514 223.762 3.96183C223.657 4.49514 223.505 5.36783 223.421 5.83919C223.378 6.09776 223.34 6.45869 222.943 6.45869C222.616 6.45869 222.329 6.0816 222.153 5.89844C221.875 5.61293 220.301 3.98877 217.643 3.98877C212.597 3.98877 211.743 8.8047 211.743 12.4705C211.743 17.5262 213.392 20.955 217.643 20.955C219.268 20.955 220.12 20.6937 220.385 20.621V13.688C220.385 13.2678 220.631 13.1331 221.064 13.1331H223.397C223.889 13.1331 224.06 13.3324 224.06 13.7203V21.3024C224.06 22.0216 224.016 22.1051 223.421 22.3663" fill="black"/>
</svg>
