<?xml version="1.0" encoding="utf-8"?>
<!-- Generator: Adobe Illustrator 27.0.0, SVG Export Plug-In . SVG Version: 6.00 Build 0)  -->
<svg version="1.1" id="Layer_1" xmlns="http://www.w3.org/2000/svg" xmlns:xlink="http://www.w3.org/1999/xlink" x="0px" y="0px"
	 viewBox="0 0 70.6 26.4" style="enable-background:new 0 0 70.6 26.4;" xml:space="preserve">
<style type="text/css">
	.st0{fill:#FFFFFF;}
</style>
<g>
	<path class="st0" d="M0,1.4h2.9v10.3h12.2V1.4H18V25h-2.9V14.4H2.9V25H0V1.4z"/>
	<path class="st0" d="M21.7,16.4c0-5.2,3.3-8.8,8.2-8.8s8,3.1,8.2,8.2c0,0.4,0,0.8-0.1,1.2H24.6v0.2c0.1,3.3,2.2,5.6,5.4,5.6
		c2.4,0,4.3-1.3,4.9-3.5h2.8c-0.7,3.4-3.5,6-7.5,6C25,25.2,21.7,21.7,21.7,16.4z M35,14.7c-0.3-3-2.3-4.6-5.2-4.6
		c-2.5,0-4.9,1.8-5.1,4.6C24.7,14.7,35,14.7,35,14.7z"/>
	<path class="st0" d="M41.2,1.4H44V25h-2.8V1.4z"/>
	<path class="st0" d="M47.3,3.1c0-1,0.8-1.8,1.8-1.8s1.8,0.7,1.8,1.8s-0.8,1.8-1.8,1.8S47.3,4.2,47.3,3.1z M47.7,7.8h2.8V25h-2.8
		V7.8z"/>
	<path class="st0" d="M53.6,16.4c0-5.2,3.5-8.8,8.5-8.8s8.5,3.6,8.5,8.8s-3.5,8.8-8.5,8.8S53.6,21.7,53.6,16.4z M67.9,16.4
		c0-3.7-2.3-6.3-5.7-6.3c-3.4,0-5.7,2.7-5.7,6.3c0,3.7,2.3,6.3,5.7,6.3C65.6,22.8,67.9,20.1,67.9,16.4z"/>
</g>
</svg>
