<?xml version="1.0" encoding="utf-8"?>
<!-- Generator: Adobe Illustrator 27.8.1, SVG Export Plug-In . SVG Version: 6.00 Build 0)  -->
<svg version="1.1" id="Layer_1" xmlns="http://www.w3.org/2000/svg" xmlns:xlink="http://www.w3.org/1999/xlink" x="0px" y="0px"
	 viewBox="0 0 99.2 35.3" style="enable-background:new 0 0 99.2 35.3;" xml:space="preserve">
<style type="text/css">
	.st0{fill:#FFFFFF;}
</style>
<g>
	<path class="st0" d="M8.9,30.6L8.9,30.6c0.9,0.3,1.8,0.5,2.9,0.5c4.3,0,7.3-3.1,7.3-9.1V4.3l1.6-0.8v18.8c0,6.1-3.1,9.6-7.6,9.6
		C11.6,31.9,10.2,31.4,8.9,30.6 M7,28.8L7,28.8c1,0.3,2,0.5,2.9,0.5c3.6,0,6-2.3,6-7.4V5.6l1.6-0.8V22c0,5.4-2.7,8.1-6.5,8.1
		C9.6,30.2,8.2,29.6,7,28.8 M5.9,27.2L5.9,27.2c0.9,0.3,1.7,0.4,2.4,0.4c2.8,0,4.5-1.5,4.5-5.6V7l1.6-0.8v15.5
		c0,4.5-2.1,6.6-5.1,6.6C8.1,28.4,6.9,27.9,5.9,27.2 M11.3,22.4V7.6l-7,3.1v12c0,2.3,1.4,3.8,3.6,3.8C10,26.6,11.3,25.1,11.3,22.4"
		/>
	<path class="st0" d="M29.7,7.6v5.5c0,2,1.2,3.6,3.5,3.6c2,0,3.5-1.5,3.5-3.7V7.7c0-0.6,0.4-1.1,1-1.1h0.2V6.1h-3.5v0.5h0.2
		c0.6,0,1,0.5,1,1.1v5.2c0,1.7-0.9,2.7-2.2,2.7c-1.4,0-2.2-1.1-2.2-2.7V7.6c0-0.6,0.3-0.9,1-1h0.2V6.1h-3.9v0.5h0.2
		C29.4,6.7,29.7,7,29.7,7.6"/>
	<path class="st0" d="M34.4,19.4h0.2c0.6,0,1,0.3,1,0.9v3.2h-3.9v-3.2c0-0.6,0.4-0.8,1-0.9h0.2v-0.5H29v0.5h0.2c0.6,0,1,0.3,1,0.9
		v7.6c0,0.6-0.4,0.8-1,0.9H29v0.5h3.9v-0.5h-0.2c-0.6,0-1-0.3-1-0.9v-3.5h3.9v3.5c0,0.6-0.4,0.8-1,0.9h-0.2v0.5h3.9v-0.5h-0.2
		c-0.6,0-1-0.3-1-0.9v-7.6c0-0.6,0.4-0.8,1-0.9h0.2v-0.5h-3.9"/>
	<path class="st0" d="M37.9,9.1v0.5h0.3c0.5,0,0.7,0.3,0.7,0.9v4.6c0,0.6-0.3,0.8-0.8,0.9h-0.2v0.5h3.5V16h-0.2
		c-0.5,0-0.8-0.3-0.8-0.9v-2.4c0-1.8,0.8-2.9,1.7-2.9c0.7,0,1.2,0.5,1.2,1.4v3.9c0,0.6-0.3,0.8-0.8,0.9h-0.2v0.5h3.5V16h-0.2
		c-0.5,0-0.8-0.3-0.8-0.9V11c0-1.2-0.7-2.1-2.1-2.1c-1,0-1.9,0.6-2.2,1.7V8.9"/>
	<path class="st0" d="M58.3,16.7c1.5,0,2.4-1,2.7-2.2l-0.6-0.2c-0.3,0.8-0.8,1.4-1.9,1.4c-1.2,0-2-1.1-2-3h4.6v-0.4
		c0-1.9-1.1-3.5-3-3.5c-2,0-3.2,1.9-3.2,3.9S56.2,16.7,58.3,16.7 M58.2,9.7c0.8,0,1.3,0.8,1.4,2.3h-3C56.7,10.6,57.3,9.7,58.2,9.7"
		/>
	<path class="st0" d="M51,14.8c0,1.2,0.7,1.8,1.8,1.8c1,0,1.7-0.8,2-1.8l-0.5-0.1c-0.2,0.6-0.6,1-1,1c-0.6,0-0.8-0.5-0.8-1V9.9h2
		V9.1h-2V6.8h-0.7c-0.3,1.7-1.2,2.4-2.1,2.5v0.5H51"/>
	<path class="st0" d="M47.9,7.7c0.5,0,1-0.4,1-1c0-0.5-0.4-1-1-1c-0.5,0-1,0.4-1,1S47.3,7.7,47.9,7.7"/>
	<path class="st0" d="M47.2,10.5v4.6c0,0.6-0.3,0.8-0.8,0.9h-0.2v0.5h3.5V16h-0.2c-0.5,0-0.8-0.3-0.8-0.9V8.9l-2.6,0.2v0.5h0.4
		C46.9,9.7,47.2,9.9,47.2,10.5"/>
	<path class="st0" d="M64.9,16.7c1,0,1.7-0.5,2.1-1.4v1.2h2.5V16h-0.2c-0.5,0-0.8-0.3-0.8-0.9V5.9L66,6.1v0.5h0.3
		c0.5,0,0.7,0.3,0.7,0.9v2.7c-0.3-0.8-1.1-1.3-2.1-1.3c-2,0-3.1,1.9-3.1,3.9S63,16.7,64.9,16.7 M65.2,9.7c1.1,0,1.8,1.2,1.8,3.1
		s-0.7,3.1-1.8,3.1c-1,0-1.7-1.2-1.7-3.1C63.5,10.9,64.1,9.7,65.2,9.7"/>
	<path class="st0" d="M87.1,21.6c-0.9,0-1.6,0.6-1.9,1.6v-1.5l-2.5,0.2v0.5H83c0.5,0,0.7,0.3,0.7,0.9v4.6c0,0.6-0.3,0.8-0.8,0.9
		h-0.2v0.5h3.5v-0.5H86c-0.5,0-0.8-0.3-0.8-0.9v-2.5c0-1.9,0.8-3,1.8-3c0.2,0,0.4,0.1,0.5,0.2c-0.3,0.1-0.4,0.4-0.4,0.7
		c0,0.4,0.4,0.8,0.8,0.8s0.8-0.4,0.8-0.9C88.6,22.2,87.9,21.6,87.1,21.6"/>
	<path class="st0" d="M91.9,21.6c-2,0-3.2,1.9-3.2,3.9s1.3,3.9,3.4,3.9c1.5,0,2.4-1,2.7-2.2L94.2,27c-0.3,0.8-0.8,1.4-1.9,1.4
		c-1.2,0-2-1.1-2-3h4.6V25C94.9,23.2,93.7,21.6,91.9,21.6 M90.2,24.8c0.1-1.4,0.7-2.3,1.6-2.3c0.8,0,1.3,0.8,1.4,2.3"/>
	<path class="st0" d="M81.4,28v-3.9c0-1.6-1-2.5-2.7-2.5c-1.4,0-2.7,1-2.7,2c0,0.5,0.3,0.8,0.8,0.8c0.4,0,0.8-0.4,0.8-0.8
		c0-0.3-0.2-0.6-0.4-0.7c0.3-0.4,0.7-0.6,1.3-0.6c0.9,0,1.5,0.7,1.5,1.8v0.3l-2.2,0.9c-1.5,0.6-2,1.1-2,2.1c0,1.1,0.8,1.8,2.1,1.8
		c1,0,1.7-0.6,2.1-1.5v0.2c0,0.8,0.5,1.2,1.4,1.2c0.4,0,0.6,0,0.9-0.1v-0.5C81.7,28.8,81.4,28.6,81.4,28 M79.9,26.4
		c-0.1,1.3-0.7,2.2-1.6,2.2c-0.7,0-1.1-0.4-1.1-1.1c0-0.6,0.3-1.1,1-1.4l1.8-0.8"/>
	<path class="st0" d="M60.5,27.4c-0.2,0.6-0.6,1-1,1c-0.6,0-0.8-0.5-0.8-1v-4.8h2v-0.8h-2v-2.3H58c-0.3,1.7-1.2,2.4-2.1,2.5v0.5h1.4
		v5c0,1.2,0.7,1.8,1.8,1.8c1,0,1.7-0.8,2-1.8"/>
	<path class="st0" d="M51,28v-3.9c0-1.6-1-2.5-2.7-2.5c-1.4,0-2.7,1-2.7,2c0,0.5,0.3,0.8,0.8,0.8c0.4,0,0.8-0.4,0.8-0.8
		c0-0.3-0.2-0.6-0.4-0.7c0.3-0.4,0.7-0.6,1.3-0.6c0.9,0,1.5,0.7,1.5,1.8v0.3l-2.2,0.9c-1.5,0.6-2,1.1-2,2.1c0,1.1,0.8,1.8,2.1,1.8
		c1,0,1.7-0.6,2.1-1.5v0.2c0,0.8,0.5,1.2,1.4,1.2c0.4,0,0.6,0,0.9-0.1v-0.5C51.3,28.8,51,28.6,51,28 M49.6,26.4
		c-0.1,1.3-0.7,2.2-1.6,2.2c-0.7,0-1.1-0.4-1.1-1.1c0-0.6,0.3-1.1,1-1.4l1.8-0.8"/>
	<path class="st0" d="M72.8,28.5c-1.2,0-2-1.1-2-3c0-1.8,0.8-3,2-3c0.5,0,1,0.2,1.2,0.5c-0.2,0.1-0.4,0.4-0.4,0.7
		c0,0.4,0.4,0.8,0.8,0.8s0.8-0.4,0.8-0.9c0-0.9-0.9-2-2.5-2c-2.2,0-3.5,1.9-3.5,3.9s1.3,3.9,3.4,3.9c1.5,0,2.3-1,2.6-2.1l-0.6-0.2
		C74.3,27.9,73.8,28.5,72.8,28.5"/>
	<path class="st0" d="M54.8,27.9v-9.2l-2.5,0.2v0.5h0.3c0.5,0,0.7,0.3,0.7,0.9v7.6c0,0.6-0.3,0.8-0.8,0.9h-0.2v0.5h3.5v-0.5h-0.2
		C55.1,28.7,54.8,28.5,54.8,27.9"/>
	<path class="st0" d="M67.9,27.9v-4.1c0-1.2-0.7-2.1-2.1-2.1c-1,0-1.9,0.6-2.2,1.7v-4.7L61,18.9v0.5h0.3c0.5,0,0.7,0.3,0.7,0.9v7.6
		c0,0.6-0.3,0.8-0.8,0.9H61v0.5h3.5v-0.5h-0.2c-0.5,0-0.8-0.3-0.8-0.9v-2.4c0-1.8,0.8-2.9,1.7-2.9c0.7,0,1.2,0.5,1.2,1.4v3.9
		c0,0.6-0.3,0.8-0.8,0.9h-0.2v0.5h3.5v-0.5h-0.2C68.2,28.7,67.9,28.5,67.9,27.9"/>
	<path class="st0" d="M41.9,21.6c-2,0-3.2,1.9-3.2,3.9s1.3,3.9,3.4,3.9c1.5,0,2.4-1,2.7-2.2L44.2,27c-0.3,0.8-0.8,1.4-1.9,1.4
		c-1.2,0-2-1.1-2-3h4.6V25C44.8,23.2,43.7,21.6,41.9,21.6 M40.2,24.8c0.1-1.4,0.7-2.3,1.6-2.3c0.8,0,1.3,0.8,1.4,2.3"/>
</g>
</svg>
